<svg width="39" height="39" viewBox="0 0 39 39" fill="none" xmlns="http://www.w3.org/2000/svg">
<g id="google">
<g id="Vector" filter="url(#filter0_d_2480_897)">
<path d="M13.0973 17.8991L12.2967 20.8879L9.37052 20.9498C8.49603 19.3278 8 17.472 8 15.4999C8 13.5929 8.46377 11.7946 9.28584 10.2112H9.28647L11.8916 10.6888L13.0328 13.2783C12.7939 13.9746 12.6637 14.7221 12.6637 15.4999C12.6638 16.3441 12.8167 17.1529 13.0973 17.8991Z" fill="#FBBB00"/>
</g>
<g id="Vector_2" filter="url(#filter1_d_2480_897)">
<path d="M30.7989 13.3516C30.931 14.0472 30.9999 14.7657 30.9999 15.4999C30.9999 16.3232 30.9133 17.1263 30.7484 17.901C30.1886 20.5372 28.7258 22.8391 26.6994 24.468L26.6988 24.4674L23.4175 24.3L22.9531 21.4009C24.2977 20.6124 25.3485 19.3783 25.902 17.901H19.7527V13.3516H25.9918H30.7989Z" fill="#518EF8"/>
</g>
<g id="Vector_3" filter="url(#filter2_d_2480_897)">
<path d="M26.6987 24.4674L26.6993 24.4681C24.7286 26.0521 22.2251 26.9999 19.4999 26.9999C15.1204 26.9999 11.3128 24.5521 9.37038 20.9498L13.0971 17.8992C14.0683 20.4911 16.5686 22.3361 19.4999 22.3361C20.7598 22.3361 21.9401 21.9956 22.953 21.401L26.6987 24.4674Z" fill="#28B446"/>
</g>
<g id="Vector_4" filter="url(#filter3_d_2480_897)">
<path d="M26.8405 6.64752L23.115 9.69753C22.0667 9.0423 20.8276 8.66379 19.5 8.66379C16.5025 8.66379 13.9554 10.5935 13.0329 13.2783L9.28652 10.2113H9.28589C11.1998 6.52115 15.0555 4 19.5 4C22.2904 4 24.8488 4.99394 26.8405 6.64752Z" fill="#F14336"/>
</g>
</g>
<defs>
<filter id="filter0_d_2480_897" x="0" y="6.21118" width="21.0973" height="26.7385" filterUnits="userSpaceOnUse" color-interpolation-filters="sRGB">
<feFlood flood-opacity="0" result="BackgroundImageFix"/>
<feColorMatrix in="SourceAlpha" type="matrix" values="0 0 0 0 0 0 0 0 0 0 0 0 0 0 0 0 0 0 127 0" result="hardAlpha"/>
<feOffset dy="4"/>
<feGaussianBlur stdDeviation="4"/>
<feColorMatrix type="matrix" values="0 0 0 0 0.984314 0 0 0 0 0.733333 0 0 0 0 0 0 0 0 0.12 0"/>
<feBlend mode="normal" in2="BackgroundImageFix" result="effect1_dropShadow_2480_897"/>
<feBlend mode="normal" in="SourceGraphic" in2="effect1_dropShadow_2480_897" result="shape"/>
</filter>
<filter id="filter1_d_2480_897" x="11.7527" y="9.35156" width="27.2472" height="27.1165" filterUnits="userSpaceOnUse" color-interpolation-filters="sRGB">
<feFlood flood-opacity="0" result="BackgroundImageFix"/>
<feColorMatrix in="SourceAlpha" type="matrix" values="0 0 0 0 0 0 0 0 0 0 0 0 0 0 0 0 0 0 127 0" result="hardAlpha"/>
<feOffset dy="4"/>
<feGaussianBlur stdDeviation="4"/>
<feColorMatrix type="matrix" values="0 0 0 0 0.317647 0 0 0 0 0.556863 0 0 0 0 0.972549 0 0 0 0.12 0"/>
<feBlend mode="normal" in2="BackgroundImageFix" result="effect1_dropShadow_2480_897"/>
<feBlend mode="normal" in="SourceGraphic" in2="effect1_dropShadow_2480_897" result="shape"/>
</filter>
<filter id="filter2_d_2480_897" x="1.37038" y="13.8992" width="33.329" height="25.1008" filterUnits="userSpaceOnUse" color-interpolation-filters="sRGB">
<feFlood flood-opacity="0" result="BackgroundImageFix"/>
<feColorMatrix in="SourceAlpha" type="matrix" values="0 0 0 0 0 0 0 0 0 0 0 0 0 0 0 0 0 0 127 0" result="hardAlpha"/>
<feOffset dy="4"/>
<feGaussianBlur stdDeviation="4"/>
<feColorMatrix type="matrix" values="0 0 0 0 0.156863 0 0 0 0 0.705882 0 0 0 0 0.27451 0 0 0 0.12 0"/>
<feBlend mode="normal" in2="BackgroundImageFix" result="effect1_dropShadow_2480_897"/>
<feBlend mode="normal" in="SourceGraphic" in2="effect1_dropShadow_2480_897" result="shape"/>
</filter>
<filter id="filter3_d_2480_897" x="1.28589" y="0" width="33.5546" height="25.2783" filterUnits="userSpaceOnUse" color-interpolation-filters="sRGB">
<feFlood flood-opacity="0" result="BackgroundImageFix"/>
<feColorMatrix in="SourceAlpha" type="matrix" values="0 0 0 0 0 0 0 0 0 0 0 0 0 0 0 0 0 0 127 0" result="hardAlpha"/>
<feOffset dy="4"/>
<feGaussianBlur stdDeviation="4"/>
<feColorMatrix type="matrix" values="0 0 0 0 0.945098 0 0 0 0 0.262745 0 0 0 0 0.211765 0 0 0 0.12 0"/>
<feBlend mode="normal" in2="BackgroundImageFix" result="effect1_dropShadow_2480_897"/>
<feBlend mode="normal" in="SourceGraphic" in2="effect1_dropShadow_2480_897" result="shape"/>
</filter>
</defs>
</svg>
